<svg width="30" height="30" viewBox="0 0 30 30" fill="none" xmlns="http://www.w3.org/2000/svg">
<g id="Group 1216">
<g id="Group 1174">
<path id="Vector" d="M30 15.0056C30 6.73171 23.2683 0 15.0056 0C6.74296 0 0 6.73171 0 15.0056C0 23.2796 6.73171 30 14.9944 30C23.257 30 29.9887 23.2683 29.9887 15.0056H30ZM15.0056 27.7486C7.98124 27.7486 2.26266 22.03 2.26266 15.0056C2.26266 7.98124 7.96998 2.26266 14.9944 2.26266C22.0188 2.26266 27.7373 7.98124 27.7373 15.0169C27.7373 22.0525 22.0188 27.7599 14.9944 27.7599L15.0056 27.7486Z" fill="#003049"/>
</g>
<path id="Vector_2" d="M19.4571 18.2473C20.2008 17.2132 20.6628 15.9608 20.6628 14.582C20.6628 11.1695 17.9471 8.40039 14.6229 8.40039C11.2986 8.40039 8.58289 11.1695 8.58289 14.582C8.58289 15.9608 9.03363 17.2132 9.77736 18.2473C7.79408 19.7525 6.59961 22.108 6.59961 24.6932C6.59961 25.3252 7.1067 25.8423 7.72647 25.8423C8.34625 25.8423 8.85333 25.3252 8.85333 24.6932C8.85333 22.694 9.84497 20.89 11.4789 19.833C12.4029 20.4075 13.4735 20.7637 14.6229 20.7637C15.7723 20.7637 16.8541 20.4075 17.7668 19.833C19.3895 20.89 20.3924 22.694 20.3924 24.6932C20.3924 25.3252 20.8995 25.8423 21.5193 25.8423C22.139 25.8423 22.6461 25.3252 22.6461 24.6932C22.6461 22.108 21.4516 19.7525 19.4684 18.2473H19.4571ZM10.8253 14.582C10.8253 12.4334 12.5269 10.6984 14.6116 10.6984C16.6963 10.6984 18.3979 12.4449 18.3979 14.582C18.3979 16.7192 16.6963 18.4657 14.6116 18.4657C12.5269 18.4657 10.8253 16.7192 10.8253 14.582Z" fill="#003049"/>
</g>
</svg>
